<?xml version="1.0" standalone="no"?>
<!DOCTYPE svg PUBLIC "-//W3C//DTD SVG 20010904//EN"
 "http://www.w3.org/TR/2001/REC-SVG-20010904/DTD/svg10.dtd">
<svg version="1.0" xmlns="http://www.w3.org/2000/svg"
 width="500.000000pt" height="500.000000pt" viewBox="0 0 500.000000 500.000000"
 preserveAspectRatio="xMidYMid meet">
<metadata>
Created by potrace 1.14, written by Peter Selinger 2001-2017
</metadata>
<g transform="translate(0.000000,500.000000) scale(0.100000,-0.100000)"
fill="#000000" stroke="none">
<path d="M0 2500 l0 -2500 2500 0 2500 0 0 2500 0 2500 -2500 0 -2500 0 0
-2500z m2979 2098 c5 -14 4 -36 -4 -58 -7 -19 -207 -537 -445 -1150 -238 -613
-435 -1120 -437 -1127 -12 -31 -78 -26 -88 7 -6 17 874 2307 898 2338 17 21
67 15 76 -10z m-1039 -424 c10 -10 11 -22 4 -39 -5 -15 -181 -160 -441 -364
l-432 -339 428 -336 c236 -185 434 -343 441 -351 19 -22 4 -64 -25 -71 -14 -3
-31 -2 -38 4 -6 5 -214 168 -462 361 -247 194 -455 362 -462 374 -10 17 -10
26 0 40 7 10 217 179 467 377 464 366 489 382 520 344z m1644 -347 c253 -199
464 -369 469 -378 6 -9 8 -23 4 -31 -8 -23 -927 -741 -953 -746 -26 -5 -58 36
-49 61 4 8 202 169 442 357 239 188 431 346 426 350 -4 4 -188 148 -408 320
-220 172 -415 328 -434 346 -31 30 -34 35 -23 58 25 56 39 47 526 -337z
m-1244 -2102 l0 -95 -260 0 -260 0 0 -120 0 -120 233 -2 232 -3 3 -92 3 -93
-236 0 -235 0 0 -130 0 -130 258 -2 257 -3 3 -97 3 -98 -366 0 -365 0 0 540 0
540 365 0 365 0 0 -95z m887 66 c104 -46 149 -128 141 -251 -8 -103 -59 -180
-143 -216 -27 -11 -28 -13 -10 -19 141 -46 199 -124 198 -266 -1 -138 -57
-217 -192 -271 -52 -21 -74 -22 -343 -26 l-288 -4 0 542 0 542 293 -4 c282 -3
294 -4 344 -27z"/>
<path d="M2800 1500 l0 -132 133 4 c141 4 180 16 211 60 20 28 21 100 2 137
-24 45 -58 55 -208 59 l-138 4 0 -132z"/>
<path d="M2800 1069 l0 -142 148 5 c165 5 205 17 236 69 23 39 24 117 2 152
-32 48 -70 57 -235 57 l-151 0 0 -141z"/>
</g>
</svg>
